<svg xmlns="http://www.w3.org/2000/svg" xmlns:xlink="http://www.w3.org/1999/xlink" version="1.1" id="Layer_1" x="0px" y="0px" width="100px" height="100px" viewBox="0 0 100 100" enable-background="new 0 0 100 100" xml:space="preserve">
<path fill-rule="evenodd" clip-rule="evenodd" d="M60.166,15.686c2.096,0.255,4.851,0.511,6.744,0.53c0,1.985,0,3.969,0,5.953  c-2.342,0.083-4.568,0.28-6.744,0.529c-0.301,0.141-0.053,0.831-0.134,1.19c-0.94-0.052-1.138-0.021-2.115,0  c-0.315,5.24,1.604,9.278,4.233,12.036c0.697,0.732,2.334,1.248,1.984,2.513c-1.395,0.276-2.834-0.636-3.969-1.321  c-3.844-2.331-6.908-6.292-7.541-11.904c-2.702,1.042-4.232,3.264-4.363,6.877c-4.585,0-9.17,0-13.757,0  c-0.404-6.914-0.95-13.686-7.539-14.417c0.088-2.469-0.117-4.645-0.131-7.01c11.557,0.744,26.937-2.337,33.065,3.834  C60.219,14.665,59.828,15.54,60.166,15.686z"/>
<path fill-rule="evenodd" clip-rule="evenodd" d="M34.505,35.131c4.541,0,9.083,0,13.624,0c0.242,1.527-0.324,3.252,0,4.762  c0.247,1.146,1.657,2.333,2.513,3.44c1.848,2.386,3.181,4.195,5.026,6.613c0.805,1.052,1.921,2.229,2.249,3.571  c0.7,2.848,0.133,7.69,0.133,11.108c0,9.505,0,18.105,0,28.044c0,1.425,0.34,4.42-0.397,5.156c-1.002,1.002-6.008,0.396-8.067,0.396  c-6.243,0-10.302,0-16.798,0c-2.143,0-7.014,0.52-7.935-0.396c-0.766-0.756-0.398-3.729-0.398-5.291c0-9.704,0-18.231,0-27.909  c0-3.676-0.511-8.026,0.131-10.979c0.333-1.521,1.395-2.6,2.25-3.701c1.767-2.283,3.173-4.19,5.025-6.613  c0.872-1.144,2.252-2.287,2.511-3.309c0.364-1.421-0.266-2.794,0-4.498C34.362,35.339,34.351,35.153,34.505,35.131z"/>
<g>
	<path d="M74.979,13.637c-0.549,0-1.098-0.209-1.518-0.629c-0.84-0.839-0.84-2.198,0-3.036l7.744-7.746   c0.84-0.838,2.199-0.838,3.037,0c0.84,0.839,0.84,2.197,0,3.036l-7.746,7.746C76.076,13.428,75.527,13.637,74.979,13.637z"/>
</g>
<g>
	<path d="M82.725,37.991c-0.551,0-1.1-0.21-1.52-0.629l-7.744-7.746c-0.84-0.839-0.84-2.197,0-3.036   c0.838-0.839,2.197-0.839,3.035,0l7.746,7.745c0.84,0.839,0.84,2.198,0,3.037C83.824,37.781,83.273,37.991,82.725,37.991z"/>
</g>
<g>
	<path d="M90.795,21.956h-0.004l-11.568-0.022c-1.186-0.002-2.145-0.965-2.143-2.151c0.002-1.184,0.963-2.143,2.146-2.143   c0,0,0.002,0,0.006,0l11.566,0.022c1.184,0.001,2.145,0.966,2.143,2.151S91.979,21.956,90.795,21.956z"/>
</g>
</svg>